<?xml version="1.0" standalone="no"?>
<!DOCTYPE svg PUBLIC "-//W3C//DTD SVG 20010904//EN"
 "http://www.w3.org/TR/2001/REC-SVG-20010904/DTD/svg10.dtd">
<svg version="1.0" xmlns="http://www.w3.org/2000/svg"
 width="512.000000pt" height="512.000000pt" viewBox="0 0 512.000000 512.000000"
 preserveAspectRatio="xMidYMid meet">

<g transform="translate(0.000000,512.000000) scale(0.100000,-0.100000)"
fill="#000000" stroke="none">
<path d="M270 4004 c-138 -37 -231 -136 -260 -278 -14 -67 -7 -125 22 -206 19
-52 87 -122 1172 -1206 885 -886 1162 -1156 1197 -1173 103 -48 215 -48 318 0
35 17 312 287 1197 1173 1109 1108 1153 1153 1175 1211 30 82 31 188 0 267
-58 149 -227 247 -380 220 -128 -23 -82 19 -1153 -1051 l-998 -996 -997 996
c-759 758 -1009 1001 -1043 1017 -46 22 -134 43 -174 41 -11 0 -46 -7 -76 -15z"/>
</g>
</svg>
