<?xml version="1.0" standalone="no"?>
<!DOCTYPE svg PUBLIC "-//W3C//DTD SVG 20010904//EN"
    "http://www.w3.org/TR/2001/REC-SVG-20010904/DTD/svg10.dtd">
<svg version="1.0" xmlns="http://www.w3.org/2000/svg"
    width="512.000000pt" height="512.000000pt" viewBox="0 0 512.000000 512.000000"
    preserveAspectRatio="xMidYMid meet">

<g transform="translate(0.000000,512.000000) scale(0.100000,-0.100000)"
fill="#000000" stroke="none">
<path d="M1437 4765 c-44 -11 -75 -31 -104 -65 -7 -8 -214 -359 -460 -780
l-448 -765 0 -77 c0 -69 3 -81 30 -119 17 -23 50 -53 75 -66 l45 -24 910 3
c711 3 917 6 940 16 82 35 144 142 131 224 -11 65 -33 96 -151 218 -62 63
-116 126 -120 139 -19 62 93 114 316 147 603 89 1193 -278 1389 -864 86 -256
84 -567 -5 -828 -142 -415 -507 -738 -936 -829 -521 -111 -1049 103 -1341 541
-121 182 -212 243 -379 252 -71 3 -99 0 -153 -18 -125 -41 -235 -152 -271
-273 -19 -65 -19 -189 0 -253 8 -28 40 -90 70 -138 330 -527 898 -889 1521
-971 164 -21 418 -19 582 5 698 102 1297 540 1608 1175 147 302 214 591 214
927 0 356 -71 656 -230 968 -110 214 -232 381 -406 552 -174 171 -350 296
-559 398 -304 148 -588 213 -930 213 -279 1 -508 -41 -763 -140 -208 -81 -211
-80 -275 148 -25 86 -52 169 -60 185 -43 83 -143 124 -240 99z"/>
</g>
</svg>
